<svg width="118" height="118" viewBox="0 0 118 118" xmlns="http://www.w3.org/2000/svg"><title>Group</title><g fill="none" fill-rule="evenodd"><path d="M10.258 62.86c-4.395.032-8.118-2.587-9.49-6.674-.053-.16-.1-.314-.143-.466C-.87 50.484 2.03 45.008 7.23 43.255L90.613 15.32a11.31 11.31 0 0 1 3.046-.446c4.51-.036 8.33 2.64 9.74 6.816l.12.403c1.56 5.452-2.32 10.32-6.96 11.88l-82.92 28.31a10.88 10.88 0 0 1-3.39.576" fill="#70CADB"/><path d="M24.157 103.867c-4.428.032-8.165-2.55-9.52-6.578-.05-.16-.1-.31-.143-.47a10.28 10.28 0 0 1 6.596-12.59l83.388-28.19a10.71 10.71 0 0 1 3.307-.56c4.442-.036 8.344 2.68 9.72 6.752l.13.426c.803 2.813.328 5.98-1.272 8.477-1.195 1.86-4.96 3.494-4.96 3.494L27.7 103.264c-1.165.39-2.355.593-3.54.604" fill="#E01765"/><path d="M93.572 104.043a10.233 10.233 0 0 1-9.802-6.976L55.94 14.402l-.14-.465c-1.506-5.27 1.392-10.77 6.59-12.522a10.27 10.27 0 0 1 3.2-.542c1.608-.012 3.164.35 4.63 1.074a10.214 10.214 0 0 1 5.157 5.913l27.828 82.658.08.265c1.563 5.473-1.33 10.976-6.527 12.726-1.03.34-2.103.52-3.184.53" fill="#E8A723"/><path d="M52.205 117.97a10.242 10.242 0 0 1-9.807-6.984L14.575 28.323a19.1 19.1 0 0 1-.14-.46 10.235 10.235 0 0 1 6.583-12.523 10.333 10.333 0 0 1 3.187-.535 10.24 10.24 0 0 1 9.805 6.98l27.824 82.664c.052.14.1.3.14.45a10.235 10.235 0 0 1-6.588 12.53 10.294 10.294 0 0 1-3.18.53" fill="#3EB890"/><path d="M79.852 85.43l19.405-6.636-6.343-18.84-19.428 6.568 6.366 18.907" fill="#CC1F27"/><path d="M38.55 99.55l19.402-6.633-6.39-18.982-19.424 6.567 6.41 19.05" fill="#361238"/><path d="M66.037 44.396l19.407-6.625-6.268-18.62-19.444 6.52 6.305 18.73" fill="#65863A"/><path d="M24.73 58.498l19.407-6.625-6.346-18.856-19.44 6.513 6.39 18.968" fill="#1A937D"/></g></svg>